<svg width="20" height="20" viewBox="0 0 374 374" fill="none" xmlns="http://www.w3.org/2000/svg">
<path d="M295.838 171.274H202.415V77.852C202.415 73.7225 200.775 69.7621 197.855 66.8421C194.935 63.9221 190.975 62.2816 186.845 62.2816C182.715 62.2816 178.755 63.9221 175.835 66.8421C172.915 69.7621 171.275 73.7225 171.275 77.852V171.274H77.8521C73.7226 171.274 69.7622 172.915 66.8422 175.835C63.9222 178.755 62.2817 182.715 62.2817 186.845C62.2817 190.974 63.9222 194.935 66.8422 197.855C69.7622 200.775 73.7226 202.415 77.8521 202.415H171.275V295.838C171.275 299.967 172.915 303.928 175.835 306.848C178.755 309.768 182.715 311.408 186.845 311.408C190.975 311.408 194.935 309.768 197.855 306.848C200.775 303.928 202.415 299.967 202.415 295.838V202.415H295.838C299.967 202.415 303.928 200.775 306.848 197.855C309.768 194.935 311.408 190.974 311.408 186.845C311.408 182.715 309.768 178.755 306.848 175.835C303.928 172.915 299.967 171.274 295.838 171.274Z" fill="#231F20"/>
</svg>
