<svg width="20" height="20" viewBox="0 0 375 319" fill="none" xmlns="http://www.w3.org/2000/svg">
<path d="M320.328 318.255C356.461 318.255 374.609 300.449 374.609 264.665V53.5897C374.609 17.8052 356.461 0 320.328 0H170.105C149.879 0 132.419 5.18594 118.243 20.226L16.4222 126.023C5.18593 137.605 0 147.977 0 158.868C0 169.586 5.01334 180.131 16.4222 191.714L118.416 296.992C132.765 311.858 150.052 318.082 170.277 318.082L320.328 318.255ZM280.05 235.623C275.901 235.623 272.271 234.067 269.332 231.301L218.854 180.477L168.203 231.301C165.264 234.067 161.634 235.623 157.485 235.623C149.014 235.623 141.927 228.708 141.927 220.237C141.927 216.261 143.655 212.458 146.594 209.346L196.9 158.868L146.594 108.562C143.655 105.451 141.927 101.648 141.927 97.672C141.927 89.0283 149.014 81.9409 157.485 81.9409C161.461 81.9409 165.264 83.4964 168.376 86.6083L218.854 137.087L269.16 86.6083C272.271 83.4964 276.074 81.9409 280.05 81.9409C288.694 81.9409 295.609 89.0283 295.609 97.672C295.609 101.648 294.053 105.451 290.941 108.562L240.636 158.868L290.941 209.346C294.053 212.458 295.609 216.261 295.609 220.237C295.609 228.708 288.521 235.623 280.05 235.623Z" fill="black"/>
</svg>
