<svg width="20" height="20" viewBox="0 0 550 550" fill="none" xmlns="http://www.w3.org/2000/svg">
<path fill-rule="evenodd" clip-rule="evenodd" d="M417.314 5.04708C418.91 3.44723 420.806 2.17792 422.893 1.31186C424.98 0.445798 427.218 0 429.477 0C431.737 0 433.975 0.445798 436.062 1.31186C438.149 2.17792 440.045 3.44723 441.64 5.04708L544.717 108.123C546.316 109.719 547.586 111.615 548.452 113.702C549.318 115.789 549.764 118.027 549.764 120.286C549.764 122.546 549.318 124.783 548.452 126.871C547.586 128.958 546.316 130.853 544.717 132.449L201.129 476.036C199.481 477.674 197.517 478.959 195.357 479.816L23.5634 548.533C20.4415 549.783 17.0214 550.089 13.7272 549.413C10.433 548.737 7.40957 547.11 5.03172 544.732C2.65388 542.354 1.02619 539.331 0.350437 536.036C-0.325312 532.742 -0.0193987 529.322 1.23025 526.2L69.9477 354.407C70.8042 352.247 72.09 350.283 73.7272 348.634L417.314 5.04708ZM385.052 85.9275L463.836 164.712L508.262 120.286L429.477 41.5017L385.052 85.9275ZM439.544 189.004L360.76 110.219L137.428 333.551V343.618H154.608C159.164 343.618 163.533 345.428 166.755 348.65C169.977 351.871 171.787 356.241 171.787 360.797V377.977H188.966C193.523 377.977 197.892 379.787 201.114 383.008C204.336 386.23 206.146 390.6 206.146 395.156V412.335H216.213L439.544 189.004ZM104.169 366.81L100.527 370.452L48.0268 501.737L179.312 449.237L182.954 445.595C179.676 444.37 176.851 442.174 174.856 439.301C172.86 436.427 171.79 433.013 171.787 429.515V412.335H154.608C150.051 412.335 145.682 410.525 142.46 407.304C139.238 404.082 137.428 399.712 137.428 395.156V377.977H120.249C116.75 377.974 113.336 376.903 110.463 374.908C107.589 372.912 105.393 370.087 104.169 366.81Z" fill="black"/>
</svg>
